<?xml version="1.0" encoding="utf-8"?>
<!-- Generator: Adobe Illustrator 24.1.2, SVG Export Plug-In . SVG Version: 6.00 Build 0)  -->
<svg version="1.1" id="Capa_1" xmlns="http://www.w3.org/2000/svg" xmlns:xlink="http://www.w3.org/1999/xlink" x="0px" y="0px"
	 viewBox="0 0 545.1 545.1" style="enable-background:new 0 0 545.1 545.1;" xml:space="preserve">
<style type="text/css">
	.st0{fill:#FFFFFF;}
</style>
<g>
	<g>
		<path class="st0" d="M140.8,282.6h-12.3l0,0c-1.3,0-2.1,0.3-2.4,0.3l9.6,43.4c0.3,0,0.6,0,1.3,0h1.3h4.5c-5.1-6.2-8.6-12.6-8.6-22
			C134.1,296.3,136.5,288.8,140.8,282.6z"/>
		<path class="st0" d="M192.7,326.3L192.7,326.3l9.4-43.4c-0.3,0-0.8-0.3-2.4-0.3h-12.3c4,5.9,6.4,13.4,6.4,21.7
			c0,9.4-3.5,16.1-8.3,22h6.4C192.5,326.3,192.5,326.3,192.7,326.3z"/>
		<path class="st0" d="M179.6,326.3c5.9-6.4,9.9-12.6,9.9-22c0-8.6-3-16.1-7.8-21.7c-1.6-1.8-3.8-3.8-5.6-4.8
			c-3.8-2.1-7.5-3.5-11.8-3.5c-4.3,0-8.3,1.3-11.8,3.5c-1.8,1.3-3.8,3-5.6,4.8c-4.8,5.6-7.8,13.1-7.8,21.7c0,9.4,3.8,15.3,9.9,22
			H179.6z"/>
		<path class="st0" d="M388.2,333.3c-3.8,1.1-8,1.6-12.3,1.6c-3.8,0-7.5-0.6-11.3-1.3l-9.4,73.1c0,1.1,1.1,1.8,2.4,1.8h37.7
			c1.3,0,2.1-1.1,2.1-2.1L388.2,333.3C388.2,333.5,388.2,333.5,388.2,333.3z"/>
		<path class="st0" d="M395.4,413.6L395.4,413.6L395.4,413.6z"/>
		<path class="st0" d="M422.5,292.3h-5.4h-13.9v-9.6h2.7c1.3,0,2.1-1.1,2.1-2.1v-0.3c0-1.3-1.1-2.1-2.1-2.1h-3.8h-0.8H400h-0.8h-3.8
			c-1.3,0-2.1,1.1-2.1,2.1v0.3c0,1.3,1.1,2.1,2.1,2.1h2.7v9.6h-12.8l-2.7-13.1c-0.6-2.7-1.1-5.9-4-5.9v-7.8c0-1.3-1.1-2.4-2.4-2.4
			s-2.4,1.1-2.4,2.4v7.8c-3,0-4.3,2.4-5.1,5.9l-2.7,13.1h-16.1v-9.6h2.7c1.3,0,2.1-1.1,2.1-2.1v-0.3c0-1.3-1.1-2.1-2.1-2.1h-4.3H347
			h-4.3c-1.3,0-2.1,1.1-2.1,2.1v0.3c0,1.3,1.1,2.1,2.1,2.1h2.4v9.6h-10.4h-4c-1.3,0-2.4,1.1-2.4,2.4s1.1,2.4,2.4,2.4h1.8h2.4l0,0
			h2.4c0.8,13.9,11,26,25.1,30.8c4,1.3,8.8,2.1,13.7,2.1c5.1,0,9.9-1.1,14.2-2.4c13.9-4.8,23.9-16.6,24.4-30.5h2.4l0,0h2.4h3.2
			c1.3,0,2.4-1.1,2.4-2.4S423.8,292.3,422.5,292.3z"/>
		<path class="st0" d="M164.4,368.6c-5.6,0-11-1.1-15.8-2.7l-5.9,40.2c0,0.8,1.3,2.7,2.1,2.7h37.5c1.1,0,2.1-1.6,2.1-3l-5.9-39.4
			C174.3,367.8,169.5,368.6,164.4,368.6z"/>
		<path class="st0" d="M205.9,336h2.1h1.3c1.3,0,2.4-1.1,2.4-2.4s-1.1-2.4-2.4-2.4h-0.8h-2.4l0,0h-2.4h-12h-1.3h-8.8h-1.3h-5.6
			h-21.7h-5.6h-0.8h-8.3l0,0h-1.3c0,0-0.3,0-0.6,0h-11.8H122l0,0c-1.3,0-1.8,0.8-2.1,1.8c0,0.3,0,0.3,0,0.6c0,0.6,0.3,0.8,0.6,1.3
			c0,0.8,0.8,1.3,1.6,1.3h0.6h2.7c2.1,9.9,9.4,18.2,19.3,23c0.8,0.6,1.6,0.8,2.4,1.3c0.8,0.3,1.3,0.6,2.1,0.8
			c4.5,1.6,9.6,2.7,15,2.7c4.8,0,9.6-0.8,13.9-2.1c0.8-0.3,1.3-0.6,2.1-0.8c1.1-0.3,1.6-0.8,2.4-1.1c10.4-4.8,18.2-13.4,20.3-23.9
			C202.9,336,205.9,336,205.9,336z"/>
		<path class="st0" d="M263.9,167.3l16.9,16.9c2.1-2.1,6.7-9.1,7.5-11.5l-12.8-12.9C273.6,160.3,266.1,165.1,263.9,167.3z"/>
		<path class="st0" d="M264.2,177.2c0.3,0,0.8,0,1.1-0.6l1.6-1.6c0.3-0.3,0.3-0.3,0.3-0.6c0.3-0.6,0.3-1.1-0.3-1.3
			c-0.6-0.6-1.1-0.6-1.3-0.3c-0.3,0-0.3,0-0.6,0.3l-1.6,1.6c-0.6,0.6-0.6,1.3,0,1.6C263.7,177.2,263.9,177.2,264.2,177.2z"/>
		<path class="st0" d="M258.8,182.5c0.3,0,0.8,0,1.1-0.6l1.6-1.6c0.6-0.6,0.6-1.3,0-1.6c-0.6-0.6-1.3-0.6-1.6,0l-1.6,1.6
			c-0.6,0.6-0.6,1.3,0,1.6C258.3,182.5,258.6,182.5,258.8,182.5z"/>
		<path class="st0" d="M256.2,183.9c-0.6-0.6-1.3-0.6-1.6,0l-1.8,1.8c-0.6,0.6-0.6,1.3,0,1.6c0.3,0.3,0.6,0.6,1.1,0.6
			c0.6,0,0.8,0,1.1-0.6l1.6-1.6C256.7,185.5,256.7,184.4,256.2,183.9z"/>
		<path class="st0" d="M266.9,180.4c0.3,0.3,0.6,0.6,1.1,0.6c0.6,0,0.8,0,1.1-0.6l1.6-1.6c0,0,0-0.3,0.3-0.6
			c0.3-0.6,0.3-1.1-0.3-1.3c-0.6-0.6-1.1-0.6-1.3-0.3c-0.3,0-0.3,0-0.6,0.3l-1.8,1.6C266.3,179,266.3,180.1,266.9,180.4z"/>
		<path class="st0" d="M263.4,182.2l-1.8,1.6c-0.6,0.6-0.6,1.3,0,1.6c0.3,0.3,0.6,0.6,1.1,0.6c0.6,0,0.8,0,1.1-0.6l1.6-1.6
			c0.6-0.6,0.6-1.3,0-1.6C264.8,181.7,263.7,181.7,263.4,182.2z"/>
		<path class="st0" d="M259.7,187.6c-0.6-0.6-1.3-0.6-1.6,0l-1.8,1.6c-0.6,0.6-0.6,1.3,0,1.6c0.3,0.3,0.6,0.6,1.1,0.6
			c0.6,0,0.8,0,1.1-0.6l1.6-1.6C260.2,188.7,260.2,187.9,259.7,187.6z"/>
		<path class="st0" d="M272.8,180.4c-0.3,0-0.3,0-0.6,0.3l-1.6,1.6c-0.6,0.6-0.6,1.3,0,1.6c0.3,0.3,0.6,0.6,1.1,0.6
			c0.6,0,0.8,0,1.1-0.6l1.6-1.6c0.3-0.3,0.3-0.3,0.3-0.6c0.3-0.6,0.3-1.1-0.3-1.3C273.8,180.1,273.3,180.1,272.8,180.4z"/>
		<path class="st0" d="M266.9,185.8l-1.6,1.8c-0.6,0.6-0.6,1.3,0,1.6c0.3,0.3,0.6,0.6,1.1,0.6c0.6,0,0.8,0,1.1-0.6l1.6-1.6
			c0.6-0.6,0.6-1.3,0-1.6C268.2,185.5,267.4,185.5,266.9,185.8z"/>
		<path class="st0" d="M261.5,191.1l-1.6,1.8c-0.6,0.6-0.6,1.3,0,1.6c0.3,0.3,0.6,0.6,1.1,0.6c0.6,0,0.8,0,1.1-0.6l1.6-1.6
			c0.6-0.6,0.6-1.3,0-1.6C262.9,190.6,262.1,190.6,261.5,191.1z"/>
		<path class="st0" d="M340,164v2.4v65.4c0,6.7,5.4,12,12,12h46h2.4c6.7,0,12-5.4,12-12V164c0-6.7-5.4-12-12-12h-48.2
			C345.4,152,340,157.4,340,164z M400.8,156.8c4,0,7.2,3.2,7.2,7.2v2.4v65.4c0,4-3.2,7.2-7.2,7.2h-48.5c-4,0-7.2-3.2-7.2-7.2V164
			c0-4,3.2-7.2,7.2-7.2h46H400.8z"/>
		<path class="st0" d="M219,379.6v38.8h87.3h4.8h4.8h4.8V122.8H219V379.6L219,379.6z M223.8,127.6h92.1v251.9h-4.8V154.4
			c0-1.3-1.1-2.4-2.4-2.4h-11.8c-0.8,0-1.3,0.3-1.6,0.8l-7.5,6.9c-2.4-1.6-5.6-0.8-7.5,0l8.8,8.8c0.6-1.3,0.8-2.7,1.1-3.8l8-7.5h8.6
			v222.8h-83V127.6z"/>
		<path class="st0" d="M239.6,248.9h-2.4c-4.5,0-8.6,3.8-8.6,8.6v21.7c0,4.5,3.8,8.6,8.6,8.6h2.4c4.5,0,8.6-3.8,8.6-8.6v-22
			C248.1,252.7,244.1,248.9,239.6,248.9z M243.3,279.2c0,1.8-1.6,3.8-3.8,3.8h-2.4c-1.8,0-3.8-1.6-3.8-3.8v-22
			c0-1.8,1.6-3.8,3.8-3.8h2.4c1.8,0,3.8,1.6,3.8,3.8V279.2z"/>
		<rect x="122" y="219.8" class="st0" width="82.5" height="14.4"/>
		<rect x="122" y="156.8" class="st0" width="82.5" height="14.4"/>
		<polygon class="st0" points="156.3,152 160.9,122.8 141.6,122.8 144.3,152 		"/>
		<path class="st0" d="M180.2,214.9v-19.3h-38.6v19.3L180.2,214.9L180.2,214.9z M151.2,205.3h19.3v4.8h-19.3V205.3z"/>
		<rect x="136.5" y="185.8" class="st0" width="48.4" height="4.8"/>
	</g>
</g>
</svg>
