<?xml version="1.0" encoding="utf-8"?>
<!-- Generator: Adobe Illustrator 24.1.2, SVG Export Plug-In . SVG Version: 6.00 Build 0)  -->
<svg version="1.1" id="Layer_3" xmlns="http://www.w3.org/2000/svg" xmlns:xlink="http://www.w3.org/1999/xlink" x="0px" y="0px"
	 viewBox="0 0 512 512" style="enable-background:new 0 0 512 512;" xml:space="preserve">
<style type="text/css">
	.st0{fill:#FFFFFF;}
</style>
<g>
	<path class="st0" d="M397,125.2l-33.9-12.7c-1.5-0.5-3.1-0.4-4.4,0.5c-1.3,0.9-2,2.4-2,4v14.4h-9.6v-9.6c0-5.3-4.3-9.6-9.6-9.6
		h-19.2c-5.3,0-9.6,4.3-9.6,9.6v9.6h-9.6v-9.6c0-7.9-6.5-14.4-14.4-14.4s-14.4,6.5-14.4,14.4v9.6h-10.1
		c-2.2-10.9-11.9-19.2-23.5-19.2s-21.3,8.3-23.5,19.2h-10.1v-9.6c0-7.9-6.5-14.4-14.4-14.4s-14.4,6.5-14.4,14.4v9.6h-67.1v9.6h67.1
		v9.6c0,7.9,6.5,14.4,14.4,14.4s14.4-6.5,14.4-14.4V141h10.1c2.2,10.9,11.9,19.2,23.5,19.2c11.6,0,21.3-8.3,23.5-19.2h10.1v9.6
		c0,7.9,6.5,14.4,14.4,14.4s14.4-6.5,14.4-14.4V141h9.6v9.6c0,5.3,4.3,9.6,9.6,9.6h19.2c5.3,0,9.6-4.3,9.6-9.6V141h9.6v14.4
		c0,1.6,0.8,3.1,2,4c0.8,0.5,1.8,0.8,2.8,0.8c0.5,0,1.1-0.1,1.7-0.3l33.9-12.7c4.6-1.7,7.6-6.1,7.6-11S401.5,126.9,397,125.2z
		 M193.7,150.5c0,2.6-2.2,4.8-4.8,4.8s-4.8-2.2-4.8-4.8v-28.8c0-2.6,2.2-4.8,4.8-4.8s4.8,2.2,4.8,4.8V150.5z M236.8,150.5
		c-7.9,0-14.4-6.5-14.4-14.4s6.5-14.4,14.4-14.4c7.9,0,14.4,6.5,14.4,14.4S244.7,150.5,236.8,150.5z M289.6,150.5
		c0,2.6-2.2,4.8-4.8,4.8s-4.8-2.2-4.8-4.8v-28.8c0-2.6,2.2-4.8,4.8-4.8s4.8,2.2,4.8,4.8V150.5z M318.3,150.5v-28.8h19.2v28.8H318.3z
		 M393.6,138.1l-27.4,10.3v-24.6l27.4,10.2c0.8,0.3,1.4,1.1,1.4,2S394.5,137.8,393.6,138.1L393.6,138.1z"/>
	<path class="st0" d="M366.3,203.3h-14.4v-4.8c7.9,0,14.4-6.5,14.4-14.4s-6.5-14.4-14.4-14.4H160.1c-7.9,0-14.4,6.5-14.4,14.4
		s6.5,14.4,14.4,14.4v4.8h-14.4c-7.9,0-14.4,6.5-14.4,14.4s6.5,14.4,14.4,14.4h14.4v9.6c0,15.6,10.7,28.6,25,32.4l8.3,20.6
		l-28.3,103.9c-0.4,1.4-0.1,3,0.8,4.2c0.9,1.2,2.3,1.9,3.8,1.9h19.2c2.2,0,4.1-1.4,4.6-3.5l9.5-34.8h106l9.5,34.8
		c0.5,2.1,2.5,3.5,4.6,3.5h19.2c1.5,0,2.9-0.7,3.8-1.9c0.9-1.2,1.2-2.8,0.8-4.2l-28.3-103.9l8.3-20.6c14.4-3.8,25-16.8,25-32.4V232
		h14.4c7.9,0,14.4-6.5,14.4-14.4S374.2,203.3,366.3,203.3L366.3,203.3z M155.3,184.1c0-2.6,2.2-4.8,4.8-4.8h191.7
		c2.6,0,4.8,2.2,4.8,4.8s-2.2,4.8-4.8,4.8H160.1C157.5,188.9,155.3,186.7,155.3,184.1z M145.7,222.4c-2.6,0-4.8-2.2-4.8-4.8
		s2.2-4.8,4.8-4.8h14.4v9.6H145.7z M297.6,289.6l-5.8-14.4H316l-5.8,14.4H297.6z M222.2,295.9l8.3-20.7h51.1l8.3,20.7l11.3,41.6
		h-90.2L222.2,295.9z M289.6,265.6h-67.1v-14.4c0-2.6,2.2-4.8,4.8-4.8h57.5c2.6,0,4.8,2.2,4.8,4.8V265.6z M220.2,275.2l-5.8,14.4
		h-12.7l-5.8-14.4H220.2z M185.2,395H176l26.1-95.9h9.2L185.2,395z M205.6,356.7l2.6-9.6h95.5l2.6,9.6H205.6z M326.8,395l-26.1-95.9
		h9.2L336,395H326.8z M318.3,265.6h-19.2v-14.4c0-7.9-6.5-14.4-14.4-14.4h-57.5c-7.9,0-14.4,6.5-14.4,14.4v14.4h-19.2
		c-13.2,0-24-10.7-24-24v-43.1h172.6v43.1C342.3,254.9,331.6,265.6,318.3,265.6z M366.3,222.4h-14.4v-9.6h14.4
		c2.6,0,4.8,2.2,4.8,4.8S368.9,222.4,366.3,222.4z"/>
</g>
</svg>
