<?xml version="1.0" encoding="utf-8"?>
<!-- Generator: Adobe Illustrator 24.1.2, SVG Export Plug-In . SVG Version: 6.00 Build 0)  -->
<svg version="1.1" id="Capa_1" xmlns="http://www.w3.org/2000/svg" xmlns:xlink="http://www.w3.org/1999/xlink" x="0px" y="0px"
	 viewBox="0 0 512.5 512.5" style="enable-background:new 0 0 512.5 512.5;" xml:space="preserve">
<style type="text/css">
	.st0{fill:#FFFFFF;}
</style>
<g>
	<path class="st0" d="M334.3,207h-56c-5.4,0-10,4.5-10,10v10v10c0,5.4,4.5,10,10,10h59c5.4,0,10-4.5,10-10v-10v-6.6V217
		c0-5.4-4.5-10-10-10H334.3z"/>
	<path class="st0" d="M101.1,318.5v53h19.6v-19.6h269.9v19.6h19.6v-53H101.1L101.1,318.5z"/>
	<g>
		<path class="st0" d="M391.2,141.1V173l-0.3-0.3v0.3c-11.7-11.5-28-18.6-46.1-18.6H167.4c-17.8,0-34,7.2-46.1,18.6v-0.3L121,173
			v-31.9h-19.5v118.4c4.5-7.2,11.5-13,23.2-13h6.6h29.2c-2.1-2.7-3.3-6.3-3.3-10v-19.6c0-9,7.6-16.6,16.6-16.6h0.6h58.5h0.6
			c9,0,16.6,7.6,16.6,16.6v19.7c0,3.6-1.2,7.2-3.3,10h19.3c-2.1-2.7-3.3-6.3-3.3-10V217c0-9,7.6-16.6,16.6-16.6h0.6h58.5h0.6
			c9,0,15.4,7.6,15.4,16.6v19.6c0,3.6-1.2,7.2-3.3,10h30.4h6.6c11.5,0,18.6,5.7,23.2,13V141.1H391.2z"/>
	</g>
	<path class="st0" d="M172.8,246.2h59c5.4,0,10-4.5,10-10v-10v-6.6v-3.3c0-5.4-4.5-10-10-10h-3.3h-55.8c-5.4,0-10,4.5-10,10v10v10
		C163.2,242,167.7,246.2,172.8,246.2z"/>
	<path class="st0" d="M410.8,286.5c-0.9-0.3-2.1-0.6-3.3-0.6h-2.4c-0.3,0-300.3,0-300.3,0h-0.3c-0.9,0-2.1,0.3-3,0.6
		c-3.6,1.2-6.6,5.2-6.6,9.3v6.6c0,4.5,2.7,7.8,6.6,9.3c0.9,0.3,2.1,0.6,3.3,0.6h303c0.6,0,1.2,0,1.8-0.3c0.6,0,0.9-0.3,1.5-0.3
		c3.6-1.2,6.6-5.1,6.6-9.3v-6.6C417.5,291.7,414.7,288,410.8,286.5z"/>
	<path class="st0" d="M410.2,275.7c-1.5-8.8-6.6-22.9-22.3-22.9h-36.7H124.4c-15.7,0-20.8,14.2-22.3,22.9c-0.3,1.2-0.3,2.4-0.6,3.3
		H406h4.8C410.5,278.1,410.5,276.9,410.2,275.7z"/>
</g>
</svg>
