<?xml version="1.0" encoding="utf-8"?>
<!-- Generator: Adobe Illustrator 24.1.2, SVG Export Plug-In . SVG Version: 6.00 Build 0)  -->
<svg version="1.1" id="Слой_1" xmlns="http://www.w3.org/2000/svg" xmlns:xlink="http://www.w3.org/1999/xlink" x="0px" y="0px"
	 viewBox="0 0 512 512" style="enable-background:new 0 0 512 512;" xml:space="preserve">
<style type="text/css">
	.st0{fill:#0081FF;}
</style>
<g id="Page-1">
	<g id="_x30_03---Call" transform="translate(-1)">
		<path id="Shape" class="st0" d="M225.8,287.2c-34.7-34.7-42.5-69.4-44.3-83.3c-0.5-3.8,0.8-7.7,3.6-10.4l28.1-28.1
			c4.1-4.1,4.9-10.6,1.8-15.5l-44.7-69.4c-3.4-5.5-10.5-7.5-16.2-4.6l-71.8,33.8c-4.7,2.3-7.4,7.3-6.9,12.5
			c3.8,35.7,19.3,123.5,105.6,209.9s174,101.8,209.8,105.6c5.2,0.5,10.2-2.2,12.5-6.9L437,359c2.9-5.8,0.9-12.8-4.5-16.2l-69.4-44.7
			c-4.9-3.1-11.4-2.4-15.5,1.8L319.5,328c-2.7,2.7-6.6,4.1-10.4,3.6C295.2,329.8,260.5,321.9,225.8,287.2L225.8,287.2z"/>
		<path id="Shape_1_" class="st0" d="M363.5,268.5c-6.9,0-12.5-5.6-12.5-12.5c-0.1-51.9-42.1-94-94-94c-6.9,0-12.5-5.6-12.5-12.5
			S250.1,137,257,137c65.7,0.1,119,53.3,119.1,119.1C376.1,262.9,370.5,268.5,363.5,268.5z"/>
		<path id="Shape_2_" class="st0" d="M426.2,268.5c-6.9,0-12.5-5.6-12.5-12.5C413.6,169.5,343.5,99.4,257,99.3
			c-6.9,0-12.5-5.6-12.5-12.5s5.6-12.5,12.5-12.5c100.3,0.1,181.6,81.4,181.8,181.8c0,3.3-1.3,6.5-3.7,8.9S429.5,268.5,426.2,268.5z
			"/>
	</g>
</g>
</svg>
