<?xml version="1.0" encoding="utf-8"?>
<!-- Generator: Adobe Illustrator 24.1.2, SVG Export Plug-In . SVG Version: 6.00 Build 0)  -->
<svg version="1.1" id="Capa_1" xmlns="http://www.w3.org/2000/svg" xmlns:xlink="http://www.w3.org/1999/xlink" x="0px" y="0px"
	 viewBox="0 0 528.5 528.5" style="enable-background:new 0 0 528.5 528.5;" xml:space="preserve">
<style type="text/css">
	.st0{fill:#FFFFFF;}
</style>
<g>
	<g>
		<path class="st0" d="M128.7,342h-0.3l-5.2-84.5h-9.6V342v5.3v10.6v47.6h9.6l2.8-31.7h46.9l3.9,31.7h5.5v-34.3v-13.2V342H169
			L128.7,342L128.7,342z M172.2,368.5h-45.7l0.9-10.6H171L172.2,368.5z"/>
		<path class="st0" d="M398.7,342h-0.3h-40.2h-17.3v15.9v47.6h9.4l3.9-31.7h46.9l2.8,31.7h10.9v-47.6v-10.6V342v-84.5h-11L398.7,342
			z M400.6,368.5h-45.8l1.3-10.6h43.6L400.6,368.5z"/>
		<path class="st0" d="M372.5,305.6v-17.1c0-2.6-2.1-4.7-4.7-4.7H160.5c-2.6,0-4.7,2.1-4.7,4.7v17.1c0,2.6,2.1,4.7,4.7,4.7h58.8
			v10.6h21.2v78.7c0,0.2,0.1,0.4,0.1,0.6h-21.2v10.6h31.7h26.4h31.7v-10.6H288c0-0.2,0.1-0.4,0.1-0.6v-78.7h21.2v-10.6H368
			C370.5,310.3,372.5,308.2,372.5,305.6z"/>
		<path class="st0" d="M233,77.8v75.7h-3.5c-4.2,14.1-10.2,26.1-10.2,45.4c0,17.1,6.8,31.9,8.4,40.4h18.5c3.3-9.7,7.2-23.8,7.2-40.4
			c0-19.2-4.6-31.2-8.8-45.4h-4.4V77.8H233z"/>
		<path class="st0" d="M282.4,77.8v33.3h-3.2c-4.4,14.1-9.1,27.4-9.1,47.6c0,21.3,6.7,33.8,8.3,42.7h18.3
			c3.5-10.2,7.7-25.3,7.7-42.7c0-20.2-5-33.5-9.5-47.6h-5.5V77.8H282.4z"/>
	</g>
</g>
</svg>
