<?xml version="1.0" encoding="utf-8"?>
<!-- Generator: Adobe Illustrator 24.1.2, SVG Export Plug-In . SVG Version: 6.00 Build 0)  -->
<svg version="1.1" id="Слой_1" xmlns="http://www.w3.org/2000/svg" xmlns:xlink="http://www.w3.org/1999/xlink" x="0px" y="0px"
	 viewBox="0 0 1000 1000" style="enable-background:new 0 0 1000 1000;" xml:space="preserve">
<style type="text/css">
	.st0{fill:#FFFFFF;}
</style>
<g>
	<g transform="translate(0.000000,512.000000) scale(0.100000,-0.100000)">
		<path class="st0" d="M4574.7,2187.3v-464.9h-123.6h-123.7l-1-254.2V1213l-273-293.8l-274-294.8h-123.6h-123.6l-197.8-196.8
			c-191.9-191.9-196.8-197.8-189.9-230.5c9.9-51.5,46.5-77.1,110.8-77.1h53.4V74.5V28L3097.9,31c-114.7,2-246.3,2.9-290.8,2l-82.1-2
			v-84.1v-84.1h84.1h84.1v-123.6v-123.6h123.6h123.6v-801.2v-801.2h-39.6h-39.6v-128.6V-2244h-269c-283.9-1-288.8-1-312.5-46.5
			c-18.8-34.6-13.8-62.3,16.8-93l28.7-28.7H5000h2474.8l28.7,28.7c30.7,30.6,35.6,58.3,16.8,93c-23.7,45.5-28.7,45.5-311.6,46.5
			h-270v128.6v128.6h-39.6h-39.6v801.2v801.2h123.6h123.6v123.6v123.6h84.1h84.1v84.1V31l-81.1,2c-45.5,1-177,0-291.8-2L6691.4,28
			v46.5V120h53.4c71.2,0,108.8,28.7,108.8,83.1c0,33.6-12.9,49.4-177,216.6c-97.9,99.9-187.9,186-200.8,192.9
			c-13.8,6.9-68.2,11.9-139.5,11.9h-115.7l-274,294.8l-273,293.8v255.2l-1,254.2H5549h-123.6v464.9v464.9H5000h-425.3V2187.3z
			 M5255.2,2106.2l-2.9-378.8H5000h-252.2l-2.9,378.8l-2,377.8H5000h257.2L5255.2,2106.2z M5504.5,1470.2v-84.1H5000h-504.5v84.1
			v84.1H5000h504.5V1470.2z M5707.2,930.1c147.4-158.3,269-291.8,270-296.7c2-5-410.5-8.9-977.3-8.9c-558.9,0-979.2,4-977.3,8.9
			c2,5,122.6,138.5,269,296.7l267.1,287.8h441.2h441.2L5707.2,930.1z M6483.7,372.2l84.1-84.1H5000H3432.2l84.1,84.1l84.1,84.1H5000
			h1399.6L6483.7,372.2z M6523.3,80.5V40.9H5000H3476.8v39.6V120H5000h1523.2V80.5z M6938.7-176.7v-39.6H5000H3061.3v39.6v39.6H5000
			h1938.7V-176.7z M6689.4-1187.6l2-799.2h-83.1h-84.1l-5,32.6c-2.9,16.8-6.9,65.3-9.9,105.9c-19.8,312.5-177,651.8-420.4,903.1
			c-209.7,216.6-439.2,352.2-718.1,425.3c-272,71.2-579.6,60.3-842.7-27.7C4151.4-675.2,3821-964.1,3640-1324.1
			c-78.2-156.3-137.5-357.1-148.4-503.5c-2.9-41.5-7.9-94-10.9-116.7l-5-42.5h-84.1h-83.1v794.3c0,437.2,2.9,798.3,6.9,801.2
			c2.9,4,763.6,5.9,1688.5,5l1682.5-2.9L6689.4-1187.6z M5068.3-695c33.6-90,50.4-170.1,61.3-285.8c8.9-98.9,11.9-112.8,34.6-132.6
			c13.8-12.9,37.6-22.7,53.4-22.7c47.5,0,76.1,35.6,100.9,123.6c12.9,43.5,27.7,80.1,32.6,81.1c16.8,2,93-107.8,118.7-174.1
			c13.8-34.6,30.7-96.9,36.6-138.5c19.8-143.4-33.6-307.6-135.5-411.5c-169.1-173.1-386.7-215.6-586.5-114.7
			c-71.2,35.6-181,134.5-216.6,195.8c-56.4,96.9-88,223.5-76.1,307.6l6.9,43.5l38.6-73.2c60.3-112.8,100.9-142.4,159.3-115.7
			c43.5,19.8,51.5,48.5,38.6,135.5c-32.6,210.7,8.9,410.5,120.7,578.6l37.6,56.4h77.1h78.2L5068.3-695z M4663.7-686.1
			c0-2.9-10.9-30.6-23.7-62.3c-12.9-30.7-30.7-81.1-39.6-110.8c-9.9-29.7-18.8-60.3-21.7-67.3c-2.9-8.9-9.9-6.9-25.7,6.9
			c-23.8,22.7-67.3,26.7-98.9,9.9c-23.8-12.9-89-149.3-107.8-226.5c-7.9-30.6-13.8-102.9-12.9-168.2c0-120.7,14.8-194.9,58.4-292.8
			l23.8-53.4h-212.7h-211.7v-168.2v-168.2H3818h-172.1l4,27.7c2,14.8,5.9,64.3,8.9,110.8c10.9,166.2,78.2,379.8,171.1,539.1
			c68.3,118.7,114.8,178,219.7,281.9c146.4,146.4,313.6,249.3,513.3,316.5C4651.8-680.2,4663.7-677.2,4663.7-686.1z M5517.3-741.5
			c324.4-127.6,588.5-387.8,725-712.2c61.3-146.4,102.9-330.4,102.9-461v-72.2h-207.7h-207.7v168.2v168.2h-173.1h-173.1l18.8,38.6
			c57.4,112.8,80.1,284.9,56.4,423.4c-27.7,162.2-80.1,264.1-213.7,417.4C5364-679.2,5362-680.2,5517.3-741.5z M4620.2-1867.1
			c81.1-54.4,155.3-86.1,251.2-104.8c57.3-11.9,23.8-12.9-323.4-13.8l-388.7-1v84.1v84.1h193.9H4547L4620.2-1867.1z M5761.6-1902.7
			v-84.1l-348.2,1c-191.9,1-335.3,4-319.5,5.9c104.9,14.8,234.4,67.3,316.5,129.6l39.6,30.7h156.3l155.3,1V-1902.7L5761.6-1902.7z
			 M6770.6-2204.4v-39.6H5000H3229.5v39.6v39.6H5000h1770.5V-2204.4z"/>
	</g>
</g>
</svg>
