<?xml version="1.0" encoding="utf-8"?>
<!-- Generator: Adobe Illustrator 24.1.2, SVG Export Plug-In . SVG Version: 6.00 Build 0)  -->
<svg version="1.1" id="Capa_1" xmlns="http://www.w3.org/2000/svg" xmlns:xlink="http://www.w3.org/1999/xlink" x="0px" y="0px"
	 viewBox="0 0 512 512" style="enable-background:new 0 0 512 512;" xml:space="preserve">
<style type="text/css">
	.st0{fill:#FFFFFF;}
</style>
<g>
	<g>
		<rect x="223.3" y="335" class="st0" width="10.9" height="10.2"/>
	</g>
</g>
<g>
	<g>
		<path class="st0" d="M388.5,378.5c2-3.4,3.2-7.3,3.2-11.4c0-6.5-2.9-12.5-7.6-16.4c4.6-3.9,7.6-9.9,7.6-16.4
			c0-6.5-2.9-12.4-7.6-16.3c4.6-3.9,7.6-9.8,7.6-16.3c0-6.5-2.9-12.4-7.6-16.3c4.6-3.9,7.6-9.8,7.6-16.3c0-6.5-2.9-12.4-7.6-16.3
			c4.6-3.9,7.6-9.8,7.6-16.3c0-0.4-0.2-0.8-0.2-1.2l21.6,17.1v-45.7L255.7,82.8L98.1,206.6v45.7l22-17.1c0,0.4,0.1,0.8,0.1,1.2
			c0,6.5,3,12.4,7.6,16.3c-4.6,3.9-7.6,9.8-7.6,16.3c0,6.5,2.9,12.4,7.6,16.3c-4.6,3.9-7.6,9.8-7.6,16.3c0,6.5,2.9,12.4,7.6,16.3
			c-4.6,3.9-7.6,9.8-7.6,16.3c0,6.5,2.9,12.4,7.6,16.3c-4.6,3.9-7.6,9.9-7.6,16.5c0,4.1,1.2,8,3.2,11.4H81.8v10.2h348.4v-10.2
			L388.5,378.5L388.5,378.5z M260.8,99.8L403,211.6v19.7L260.8,119.5V99.8z M147.1,215.2v0.3c-0.5-0.1-1-0.1-1.6-0.2l29.1-22.7h60.6
			c2.3,8.8,10.8,16.3,20.8,16.3s18.5-7.5,20.8-16.3h60.6l29.1,22.7c-0.5,0.1-1,0.1-1.6,0.2v-0.3H147.1z M352.1,247.9H201.6v10.2
			h150.5c-2,2.7-3.2,7.1-3.2,11.2s1.2,7.8,3.2,11.2H159.9c2-3.4,3.2-7.1,3.2-11.2s-1.2-8.5-3.2-11.2h19.9v-10.2h-19.9
			c2-3.4,3.2-7.1,3.2-11.2s-1.2-8.5-3.2-11.2h192.1c-2,2.7-3.2,7.1-3.2,11.2S350,244.5,352.1,247.9z M352.1,313.2H337v-22.5h15.1
			c-2,2.7-3.2,7.1-3.2,11.2C348.9,306.1,350,309.8,352.1,313.2z M326.8,290.8v33.3h-22.5v-33.3H326.8z M294.1,290.8v33.3h-22.5
			v-33.3H294.1z M261.4,290.8v22.5h-11.6v-22.5H261.4z M256,166.2c-10.1,0-18.5,6.8-20.8,16.3h-47.6l28.6-22.5h79.6l28.6,22.5h-47.6
			C274.5,173,266.1,166.2,256,166.2z M267.2,187.3c0,6.2-5,11.2-11.2,11.2s-11.2-5-11.2-11.2c0-6.2,5-11.2,11.2-11.2
			S267.2,181.1,267.2,187.3z M256,128.8l26.8,21.1h-53.6L256,128.8z M108.4,231.2v-19.7L250.6,99.8v19.7L108.4,231.2z M141.7,378.2
			c-6.2,0-11.2-5-11.2-11.2s5-11.2,11.2-11.2c6.2,0,11.2,5,11.2,11.2S147.9,378.2,141.7,378.2z M141.7,345.5
			c-6.2,0-11.2-5-11.2-11.2c0-6.2,5-11.2,11.2-11.2c6.2,0,11.2,5,11.2,11.2C152.9,340.5,147.9,345.5,141.7,345.5z M141.7,312.9
			c-6.2,0-11.2-5-11.2-11.2s5-11.2,11.2-11.2c6.2,0,11.2,5,11.2,11.2S147.9,312.9,141.7,312.9z M141.7,280.2
			c-6.2,0-11.2-5-11.2-11.2s5-11.2,11.2-11.2c6.2,0,11.2,5,11.2,11.2S147.9,280.2,141.7,280.2z M141.7,247.5
			c-6.2,0-11.2-5-11.2-11.2c0-6.2,5-11.2,11.2-11.2c6.2,0,11.2,5,11.2,11.2C152.9,242.5,147.9,247.5,141.7,247.5z M174.4,378.5
			h-14.4c2-3.4,3.2-7.1,3.2-11.2s-1.2-8.5-3.2-11.2h14.4V378.5z M174.4,345.9h-14.4c2-3.4,3.2-7.1,3.2-11.2s-1.2-8.5-3.2-11.2h14.4
			V345.9z M174.4,313.2h-14.4c2-3.4,3.2-7.1,3.2-11.2c0-4.1-1.2-8.5-3.2-11.2h14.4V313.2z M239.7,378.5h-55.1v-87.8h55.1V378.5z
			 M348.9,367.2c0,4.1,1.2,8,3.2,11.4H249.9v-22.5h82.3v-10.2h-82.3v-22.5h11.6v10.9H337v-10.9h15.1c-2,2.7-3.2,6.9-3.2,11.1
			c0,6.5,2.9,12.3,7.6,16.3C351.8,354.6,348.9,360.6,348.9,367.2z M370.3,378.2c-6.2,0-11.2-5-11.2-11.2s5-11.2,11.2-11.2
			c6.2,0,11.2,5,11.2,11.2S376.5,378.2,370.3,378.2z M370.3,345.5c-6.2,0-11.2-5-11.2-11.2c0-6.2,5-11.2,11.2-11.2
			c6.2,0,11.2,5,11.2,11.2C381.5,340.5,376.5,345.5,370.3,345.5z M370.3,312.9c-6.2,0-11.2-5-11.2-11.2s5-11.2,11.2-11.2
			c6.2,0,11.2,5,11.2,11.2S376.5,312.9,370.3,312.9z M370.3,280.2c-6.2,0-11.2-5-11.2-11.2s5-11.2,11.2-11.2c6.2,0,11.2,5,11.2,11.2
			S376.5,280.2,370.3,280.2z M370.3,247.5c-6.2,0-11.2-5-11.2-11.2c0-6.2,5-11.2,11.2-11.2c6.2,0,11.2,5,11.2,11.2
			C381.5,242.5,376.5,247.5,370.3,247.5z"/>
	</g>
</g>
<g>
	<g>
		<rect x="321.3" y="231.6" class="st0" width="10.9" height="10.2"/>
	</g>
</g>
</svg>
