<?xml version="1.0" encoding="utf-8"?>
<!-- Generator: Adobe Illustrator 24.1.2, SVG Export Plug-In . SVG Version: 6.00 Build 0)  -->
<svg version="1.1" id="Capa_1" xmlns="http://www.w3.org/2000/svg" xmlns:xlink="http://www.w3.org/1999/xlink" x="0px" y="0px"
	 viewBox="0 0 612 612" style="enable-background:new 0 0 612 612;" xml:space="preserve">
<style type="text/css">
	.st0{fill:#FFFFFF;}
</style>
<g>
	<g>
		<path class="st0" d="M159,432.7h71v-96.3h-71V432.7z M210.7,378.9c3.3,0,6,2.7,6,6s-2.7,6-6,6s-6-2.7-6-6
			C204.7,381.5,207.3,378.9,210.7,378.9z"/>
		<path class="st0" d="M245.2,463.1v-15.2v-15.2V321.2h-20.3h-10.1h-5.1h-65.9v111.5V448v15.2H159V448h71v15.2L245.2,463.1
			L245.2,463.1z M159,437.8h-5.1v-5.1V331.4H235v101.4v5.1h-5.1L159,437.8L159,437.8z"/>
		<path class="st0" d="M265.5,432.7h71v-96.3h-71V432.7z M322.2,378.9c3.3,0,6,2.7,6,6s-2.7,6-6,6s-6-2.7-6-6
			C316.1,381.5,318.8,378.9,322.2,378.9z"/>
		<path class="st0" d="M351.6,463.1v-15.2v-15.2V321.2h-60.8h-15.2h-10.1h-15.2v111.5V448v15.2h15.2V448h71v15.2L351.6,463.1
			L351.6,463.1z M265.5,437.8h-5.1v-5.1V331.4h81.1v101.4v5.1h-5.1L265.5,437.8L265.5,437.8z"/>
		<rect x="371.9" y="377" class="st0" width="81.1" height="55.8"/>
		<path class="st0" d="M447.9,316.1h-25.3c-2.8,0-5.1,2.3-5.1,5.1h-10.1c0-2.8-2.3-5.1-5.1-5.1H377c-2.8,0-5.1,2.3-5.1,5.1h-15.2
			v111.5V448v15.2h15.2V448H453v15.2h15.2V448v-15.2V321.2H453C453,318.4,450.7,316.1,447.9,316.1z M434.6,339.3c0,3.3-2.7,6-6,6
			c-3.3,0-6-2.7-6-6s2.7-6,6-6S434.6,336,434.6,339.3z M447.9,356.7c1.4,0,2.5,1.1,2.5,2.5s-1.1,2.5-2.5,2.5h-71
			c-1.4,0-2.5-1.1-2.5-2.5s1.1-2.5,2.5-2.5H447.9z M409.2,339.3c0,3.3-2.7,6-6,6s-6-2.7-6-6s2.7-6,6-6
			C406.6,333.3,409.2,336,409.2,339.3z M377.9,333.3c3.3,0,6,2.7,6,6s-2.7,6-6,6c-3.3,0-6-2.7-6-6S374.6,333.3,377.9,333.3z
			 M458.1,437.8H453h-81.1h-5.1v-5.1v-60.8H458v60.8L458.1,437.8L458.1,437.8z M453.9,333.3c3.3,0,6,2.7,6,6s-2.7,6-6,6
			c-3.3,0-6-2.7-6-6C447.9,336,450.6,333.3,453.9,333.3z"/>
		<path class="st0" d="M432.7,214.8v-65.9h-45.6v65.9h-15.2l-20.3,35.5h116.6l-20.3-35.5L432.7,214.8L432.7,214.8z M433.7,238.9
			c-3.3,0-6-2.7-6-6s2.7-6,6-6c3.3,0,6,2.7,6,6C439.7,236.2,437,238.9,433.7,238.9z"/>
		<path class="st0" d="M275.6,300.9h20.3c2.8,0,5.1-2.3,5.1-5.1c0-2.8-2.3-5.1-5.1-5.1h-25.3c-2.8,0-5.1,2.3-5.1,5.1v20.3h10.1
			V300.9L275.6,300.9z"/>
		<path class="st0" d="M224.9,316.1v-20.3c0-2.8-2.3-5.1-5.1-5.1h-25.3c-2.8,0-5.1,2.3-5.1,5.1c0,2.8,2.3,5.1,5.1,5.1h20.3v15.2
			H224.9L224.9,316.1z"/>
		<path class="st0" d="M250.2,316.1v-30.4c2.8,0,5.1-2.3,5.1-5.1s-2.3-5.1-5.1-5.1v-10.1c0-2.8-2.3-5.1-5.1-5.1
			c-2.8,0-5.1,2.3-5.1,5.1v10.1c-2.8,0-5.1,2.3-5.1,5.1c0,2.8,2.3,5.1,5.1,5.1v30.4H250.2L250.2,316.1z"/>
		<path class="st0" d="M331.3,209.7H223.7c6.9-5.9,11.3-14.6,11.3-24.4c0-17.6-14.3-32-32-32s-32,14.4-32,32
			c0,9.8,4.4,18.6,11.3,24.4h-28.5v10.1h177.4L331.3,209.7L331.3,209.7z M181.8,185.3c0-11.7,9.5-21.2,21.2-21.2s21.2,9.5,21.2,21.2
			c0,11.7-9.5,21.2-21.2,21.2S181.8,197.1,181.8,185.3z"/>
		<circle class="st0" cx="203.1" cy="185.3" r="16.2"/>
		<path class="st0" d="M252.8,204.6h71c1.4,0,2.5-1.1,2.5-2.5s-1.1-2.5-2.5-2.5h-71c-1.4,0-2.5,1.1-2.5,2.5S251.4,204.6,252.8,204.6
			z"/>
		<path class="st0" d="M257.9,194.5h60.8c1.4,0,2.5-1.1,2.5-2.5s-1.1-2.5-2.5-2.5h-60.8c-1.4,0-2.5,1.1-2.5,2.5
			S256.4,194.5,257.9,194.5z"/>
		<path class="st0" d="M257.9,184.4h60.8c1.4,0,2.5-1.1,2.5-2.5s-1.1-2.5-2.5-2.5h-60.8c-1.4,0-2.5,1.1-2.5,2.5
			S256.4,184.4,257.9,184.4z"/>
		<path class="st0" d="M271.3,174.3h31.4c4.8,0,7.8-6.8,7.8-11.7c0-3.4-1.5-8.6-4-8.6h-39.2c-2.5,0-4,5.1-4,8.6
			C263.4,167.4,266.5,174.3,271.3,174.3z"/>
	</g>
</g>
</svg>
