<?xml version="1.0" encoding="utf-8"?>
<!-- Generator: Adobe Illustrator 24.1.2, SVG Export Plug-In . SVG Version: 6.00 Build 0)  -->
<svg version="1.1" id="Слой_1" xmlns="http://www.w3.org/2000/svg" xmlns:xlink="http://www.w3.org/1999/xlink" x="0px" y="0px"
	 viewBox="0 0 512 512" style="enable-background:new 0 0 512 512;" xml:space="preserve">
<style type="text/css">
	.st0{fill:#FFFFFF;}
</style>
<path class="st0" d="M185,151.8c0.7,0.4,0.7,1.3,0,1.7c-3.9,2-5.5,6.7-3.6,10.7c2,3.9,6.7,5.5,10.7,3.6c5.7-2.9,9.3-8.6,9.3-15.1
	c0-6.4-3.6-12.2-9.3-15.1c-0.7-0.4-0.7-1.3,0-1.7c3.9-2,5.5-6.7,3.6-10.7c-2-3.9-6.7-5.5-10.7-3.6c-5.7,2.9-9.3,8.6-9.3,15.1
	C175.7,143.2,179.3,148.9,185,151.8z"/>
<path class="st0" d="M232.7,151.8c0.7,0.4,0.7,1.3,0,1.7c-3.9,2-5.5,6.7-3.6,10.7c2,3.9,6.7,5.5,10.7,3.6c5.7-2.9,9.3-8.6,9.3-15.1
	c0-6.4-3.6-12.2-9.3-15.1c-0.7-0.4-0.7-1.3,0-1.7c3.9-2,5.5-6.7,3.6-10.7c-2-3.9-6.7-5.5-10.7-3.6c-5.7,2.9-9.3,8.6-9.3,15.1
	C223.4,143.2,227,148.9,232.7,151.8z"/>
<path class="st0" d="M280.4,151.8c0.7,0.4,0.7,1.3,0,1.7c-3.9,2-5.5,6.7-3.6,10.7c2,3.9,6.7,5.5,10.7,3.6c5.7-2.9,9.3-8.6,9.3-15.1
	c0-6.4-3.6-12.2-9.3-15.1c-0.7-0.4-0.7-1.3,0-1.7c3.9-2,5.5-6.7,3.6-10.7c-2-3.9-6.7-5.5-10.7-3.6c-5.7,2.9-9.3,8.6-9.3,15.1
	C271.1,143.2,274.7,148.9,280.4,151.8z"/>
<path class="st0" d="M380.2,121.9c-13.1,0-23.9,10.7-23.9,23.9v135.1h-22.3l5.5-54.9c0.5-4.7-3.2-8.7-7.9-8.7h-8
	c0-17.5-14.3-31.8-31.8-31.8c-8.3,0-15.9,3.2-21.6,8.4c-4.4-5.1-10.9-8.4-18.2-8.4c-6.1,0-11.7,2.3-15.9,6.1
	c-4.2-3.8-9.8-6.1-15.9-6.1c-7.3,0-13.8,3.3-18.2,8.4c-5.7-5.2-13.2-8.4-21.6-8.4c-17.5,0-31.8,14.3-31.8,31.8h-7.9
	c-4.7,0-8.4,4.1-7.9,8.7l15.9,159c0.4,4.1,3.8,7.2,7.9,7.2h159c4.1,0,7.5-3.1,7.9-7.2l2.5-25.2c2.1,0.3,4.2,0.5,6.4,0.5
	c21.9,0,39.8-17.8,39.8-39.8c0-12.9,0-167.4,0-174.9c0-4.4,3.6-8,8-8s7.9,3.6,7.9,8v15.9c0,4.4,3.6,7.9,8,7.9s8-3.6,8-7.9v-15.9
	C404.1,132.6,393.4,121.9,380.2,121.9z M154.5,280.9l-1.6-15.9h166.8l-1.6,15.9C298.6,280.9,169.9,280.9,154.5,280.9z M208.5,344.5
	l-4.8-47.7h65.1l-4.8,47.7H208.5z M156,296.8h31.7l4.8,47.7h-31.7L156,296.8z M284.8,296.8h8v23.9c0,9,3,17.2,8,23.9h-20.7
	L284.8,296.8z M149.7,233.2h31.7l1.6,15.9h-31.7L149.7,233.2z M275.2,233.2l-1.6,15.9H199l-1.6-15.9H275.2z M322.9,233.2l-1.6,15.9
	h-31.7l1.6-15.9H322.9z M291.9,201.4c8.7,0,15.9,7.2,15.9,15.9c-9.8,0-22.5,0-31.8,0C276,208.6,283.2,201.4,291.9,201.4z
	 M252.2,201.4c4.4,0,8,3.6,8,7.9s-3.6,7.9-8,7.9c-4.4,0-7.9-3.6-7.9-7.9S247.8,201.4,252.2,201.4z M220.4,201.4
	c4.4,0,7.9,3.6,7.9,7.9s-3.6,7.9-7.9,7.9s-7.9-3.6-7.9-7.9S216,201.4,220.4,201.4z M180.6,201.4c8.7,0,15.9,7.2,15.9,15.9
	c-9.3,0-22.2,0-31.8,0C164.7,208.6,171.9,201.4,180.6,201.4z M164,376.3l-1.6-15.9h147.8l-1.6,15.9H164z M356.4,320.7
	c0,13.1-10.7,23.9-23.9,23.9c-13.1,0-23.9-10.7-23.9-23.9v-23.9h47.7V320.7z"/>
</svg>
