<?xml version="1.0" encoding="utf-8"?>
<!-- Generator: Adobe Illustrator 24.1.2, SVG Export Plug-In . SVG Version: 6.00 Build 0)  -->
<svg version="1.1" id="Capa_1" xmlns="http://www.w3.org/2000/svg" xmlns:xlink="http://www.w3.org/1999/xlink" x="0px" y="0px"
	 viewBox="0 0 372.7 372.7" style="enable-background:new 0 0 372.7 372.7;" xml:space="preserve">
<style type="text/css">
	.st0{fill:#FFFFFF;}
</style>
<g>
	<g>
		<path class="st0" d="M292.7,129.8h-95.1l46.1-51.1c2.2-1.6,2.7-4.8,1-7s-4.8-2.7-7-1c-0.5,0.4-0.9,0.8-1.3,1.3l-50.1,55.1
			L136.3,72c-1.8-2.1-4.9-2.5-7-0.8c-2.1,1.8-2.5,4.9-0.8,7c0.1,0.1,0.3,0.3,0.4,0.4l46.1,51.1H79.9c-5.5,0-10,4.5-10,10v153.1
			c0,5.5,4.5,10,10,10h212.9c5.5,0,10-4.5,10-10V139.7C302.7,134.2,298.3,129.8,292.7,129.8z M292.7,292.7H80.4V139.7h105.9h0.4h0.4
			h105.8L292.7,292.7z"/>
	</g>
</g>
<g>
	<g>
		<path class="st0" d="M267.6,150.2H105.3c-5.4,0.1-9.9,4.6-9.9,10v112.1c0,5.5,4.5,10,10,10h162.1c5.5,0,10-4.5,10-10V160.3
			C277.6,154.7,273.1,150.2,267.6,150.2z M267.4,272.1h-162V160.3h162.2L267.4,272.1z"/>
	</g>
</g>
</svg>
