<?xml version="1.0" encoding="utf-8"?>
<!-- Generator: Adobe Illustrator 24.1.2, SVG Export Plug-In . SVG Version: 6.00 Build 0)  -->
<svg version="1.1" id="Capa_1" xmlns="http://www.w3.org/2000/svg" xmlns:xlink="http://www.w3.org/1999/xlink" x="0px" y="0px"
	 viewBox="0 0 581.4 581.4" style="enable-background:new 0 0 581.4 581.4;" xml:space="preserve">
<style type="text/css">
	.st0{fill:#FFFFFF;}
</style>
<g>
	<path class="st0" d="M187.4,160.8l23.5,2.9h100.4v23.5H204.9v-18.4l-88.6-10.6v270.5l88.6-20.9V193h17.8v24.1c-3.4,1.1-6,4.6-6,8.3
		v112.4c0,4.9,4,8.9,8.9,8.9s8.9-4,8.9-8.9V225.7c0-3.7-2.6-7.2-6-8.3v-24.1h23.5v24.1c-3.4,1.1-6,4.6-6,8.3v130
		c0,4.9,4,8.9,8.9,8.9c4.9,0,8.9-4,8.9-8.9v-130c0-3.7-2.6-7.2-6-8.3v-24.1h23.5v24.1c-3.4,1.1-6,4.6-6,8.3v130c0,4.9,4,8.9,8.9,8.9
		s8.9-4,8.9-8.9v-130c0-3.7-2.6-7.2-6-8.3v-24.1h23.5v218.6H210.1l-23.5,6.3v35h17.8v-17.8h106.4v17.8h17.8v-17.8h106.4v17.8h17.8
		V145.6H187.4V160.8z M329.2,163.5h100.4v248.2H329.2V163.5z"/>
	<path class="st0" d="M335.2,405.9h88.6V169.5h-88.6V405.9z M352.1,273.3c4,0,7.4,3.4,7.4,7.4s-3.4,7.4-7.4,7.4
		c-4,0-7.4-3.4-7.4-7.4C344.6,276.4,348.1,273.3,352.1,273.3z"/>
	<polygon class="st0" points="187.4,139.9 453.4,139.9 465.1,128.1 175.4,128.1 	"/>
</g>
</svg>
