<?xml version="1.0" encoding="utf-8"?>
<!-- Generator: Adobe Illustrator 24.1.2, SVG Export Plug-In . SVG Version: 6.00 Build 0)  -->
<svg version="1.1" id="Слой_1" xmlns="http://www.w3.org/2000/svg" xmlns:xlink="http://www.w3.org/1999/xlink" x="0px" y="0px"
	 viewBox="0 0 1000 1000" style="enable-background:new 0 0 1000 1000;" xml:space="preserve">
<style type="text/css">
	.st0{fill:#FFFFFF;}
</style>
<g>
	<g transform="translate(0.000000,511.000000) scale(0.100000,-0.100000)">
		<path class="st0" d="M5940.2,3210.5c-758.9-101.6-1364.7-663.9-1541.6-1430.7c-26.4-114.8-27.7-159.7-31.7-1289.5l-5.3-1172
			l-174.2,1.3l-174.2,1.3l-66,80.5c-92.4,112.2-282.5,264-316.7,253.4c-146.5-44.9-231-18.5-294.3,96.3
			c-26.4,46.2-38.3,55.5-96.3,67.3c-116.1,25.1-278.5,31.7-398.6,15.8c-147.9-19.8-150.5-21.1-182.1-83.2
			c-47.5-92.4-157.1-136-252.1-99l-54.1,21.1l-73.9-48.8c-103-68.6-225.7-187.4-306.2-294.4c-62-83.2-67.3-96.3-52.8-125.4
			c8-18.4,14.5-62,14.5-96.3c0-80.5-39.6-143.8-113.5-179.5c-51.4-23.8-56.7-31.7-70-100.3c-26.4-126.7-31.7-278.5-15.8-398.6
			c19.8-147.7,21-150.4,83.1-182.1c92.4-47.5,132-149.1,97.7-249.5l-21.1-59.4l48.8-72.6c60.7-89.7,240.2-270.6,324.7-328.6
			c55.5-38.3,68.6-42.2,96.3-29c18.5,7.9,62,14.5,96.3,14.5c80.5,0,143.8-39.6,179.5-113.5c23.8-51.5,31.7-56.8,100.3-70
			c128-26.4,278.5-31.7,399.9-15.8c128,17.2,166.3,31.7,166.3,60.7c0,34.3,85.8,109.6,143.8,126.7c50.2,14.5,66,14.5,117.5-3.9
			l59.4-22.4l70,46.2c88.5,58.1,241.5,200.6,283.7,261.4l31.7,47.5h987.3c557,0,985.9-5.3,985.9-11.9
			c0-23.8,175.5-199.3,265.3-266.6c83.2-62.1,96.3-67.3,125.4-52.8c18.5,7.9,62.1,14.5,96.3,14.5c80.5,0,143.8-39.6,179.5-113.5
			c23.8-51.5,31.7-56.8,100.3-70c128-26.4,278.5-31.7,399.9-15.8c128,17.2,166.3,31.7,166.3,60.7c0,34.3,85.8,109.6,143.8,126.7
			c50.2,14.5,66,14.5,117.5-3.9l59.4-22.4l73.9,48.8c103,68.6,227,187.4,306.2,294.3c63.3,87.1,67.3,93.7,51.5,130.7
			c-46.2,110.9,0,224.3,114.8,282.5c34.3,17.2,43.6,33,55.5,87.1c25.1,118.8,31.7,279.8,15.8,401.2c-17.2,128-31.7,166.3-60.7,166.3
			c-34.3,0-109.6,85.8-126.7,143.8c-14.5,50.2-14.5,66,3.9,117.5l22.4,59.4l-46.2,68.6c-68.6,103-192.7,233.6-295.6,310.1
			c-88.5,64.7-95,68.6-132,52.8c-110.8-46.2-224.3,0-282.5,114.8c-17.2,34.3-33,43.6-87.1,55.5c-117.5,25.1-279.8,31.7-399.9,15.8
			c-147.9-19.8-150.5-21.1-182.1-83.2c-47.5-92.4-157.1-136-252.1-99l-54.1,21.1l-73.9-48.8c-88.4-58.1-236.2-195.4-279.8-260
			l-31.7-46.2h-174.2h-175.5V420.4c0,1077,0,1103.4,27.7,1183.9c51.4,159.7,166.3,274.5,326,326c71.3,23.8,116.1,27.7,331.3,27.7
			c211.2,0,262.6-3.9,332.6-26.4c219.1-67.3,355-267.9,355-517.4v-89.7h636.2h634.8l-7.9,162.3c-9.2,184.8-35.6,333.9-83.2,481.8
			c-205.9,620.3-715.3,1077-1358.1,1219.5c-97.7,21.1-179.5,27.7-455.3,30.3C6184.4,3221.1,5991.7,3217.2,5940.2,3210.5z
			 M6738.7,2994.1c671.8-109.6,1199.8-640.1,1300.1-1309.3c10.6-71.3,19.8-133.3,19.8-138.6c0-6.6-191.4-10.6-426.3-10.6h-426.3
			l-17.2,67.3c-68.6,269.2-319.4,504.1-587.3,551.7c-114.8,21.1-485.7,18.5-592.6-5.3c-269.2-56.7-513.4-300.9-570.2-570.2
			c-15.8-73.9-19.8-298.3-19.8-1280.3V-892.8h264h264v-31.7c0-46.2-54.1-116.1-114.8-150.5c-47.5-26.4-56.7-38.3-68.6-96.3
			c-25.1-117.5-31.7-278.5-15.8-401.2c9.2-64.7,21.1-125.4,26.4-136c5.3-10.6,33-31.7,62-46.2c51.5-29.1,110.8-120.1,110.8-170.2
			c0-22.4-46.2-23.8-955.6-23.8h-956.8l13.2,43.6c17.2,60.7,52.8,104.3,114.8,138.6c46.2,25.1,55.5,38.3,66,92.4
			c25.1,117.5,31.7,271.9,17.2,397.3c-15.8,125.4-30.3,172.9-55.5,172.9c-31.7,0-95,59.4-118.8,110.8
			c-47.5,104.3-58.1,100.3,238.9,100.3h264V332c0,993.9,3.9,1247.3,18.5,1348.9C4694.4,2354,5225,2888.5,5894.2,2994.1
			C6057.7,3019.2,6579.1,3019.2,6738.7,2994.1z M3213.4-433.5c77.9-88.5,175.5-131.9,310.1-139.9c97.7-5.3,112.2-10.6,162.3-51.5
			c30.3-25.1,77.9-72.6,105.6-106.9c47.5-58.1,50.2-66,56.7-180.9c9.2-142.5,42.2-219.1,132-300.9l59.4-55.5v-161v-159.7l-59.4-52.8
			c-93.7-81.8-133.3-167.6-142.5-304.9c-6.6-104.2-10.6-117.5-51.5-169c-25.1-30.3-72.6-77.8-106.9-105.6
			c-58.1-47.5-66-50.2-180.8-56.7c-142.6-9.2-198-33-290.4-125.4l-66-66h-161h-159.7l-54.1,62.1c-79.2,88.5-175.5,131.9-310.1,139.9
			c-97.7,5.3-112.2,9.2-162.3,51.5c-30.3,23.8-77.9,72.6-105.6,105.6c-47.5,58.1-50.2,66-58.1,182.1c-9.2,141.2-47.5,227-136,307.5
			l-54.1,47.5v161v161l62.1,54.1c89.7,80.5,134.6,178.2,138.6,308.9c2.6,99,5.3,108.2,51.4,163.7c26.4,33,77.9,81.8,113.5,110.8
			c63.3,50.2,68.6,51.5,167.6,51.5c88.5,0,114.8,5.3,183.5,39.6c43.6,22.4,100.3,63.3,125.4,91.1c25.1,27.7,54.1,54.1,63.3,59.4
			c10.6,3.9,84.4,5.3,166.3,3.9l146.5-2.7L3213.4-433.5z M7225.8-433.5c77.8-88.5,175.5-131.9,310.1-139.9
			c99-5.3,110.8-10.6,163.7-52.8c30.3-25.1,79.2-75.2,108.2-112.2c51.5-63.3,52.8-68.6,52.8-167.6c0-87.1,5.3-113.5,39.6-182.1
			c22.4-43.6,66-101.6,96.3-129.3l55.5-50.2v-161v-161l-62.1-54.1c-88.5-77.8-131.9-175.5-139.9-310.1
			c-5.3-97.7-10.6-112.2-51.5-162.3c-25.1-30.3-72.6-77.8-106.9-105.6c-58.1-47.5-67.3-50.2-182.1-58.1
			c-139.9-9.2-225.7-47.5-306.2-136l-47.5-54.1h-161h-161l-54.1,62.1c-79.2,88.5-175.5,131.9-310.1,139.9
			c-99,5.3-110.8,9.2-163.7,52.8c-31.7,25.1-80.5,75.2-109.6,110.8c-50.2,63.3-51.5,68.6-51.5,167.6c0,88.4-5.3,114.8-39.6,183.5
			c-22.4,43.6-66,101.6-96.3,129.3l-55.5,50.2v161v161l62.1,54.1c88.5,77.9,131.9,175.6,139.9,310.1c5.3,99,10.6,110.8,52.8,163.7
			c25.1,30.3,75.2,79.2,112.2,108.2c63.3,51.4,68.6,52.8,167.6,52.8c87.1,0,113.5,5.3,182.1,39.6c43.6,22.4,100.3,63.3,125.4,91.1
			c25.1,27.7,54.1,54.1,63.3,59.4c10.6,3.9,84.4,5.3,166.3,3.9l146.5-2.7L7225.8-433.5z"/>
		<path class="st0" d="M2821.5-595.9c-242.9-54.1-472.5-236.2-582-455.3c-122.7-250.8-122.7-488.3,0-739.1
			c112.2-224.3,344.5-405.2,592.6-456.6c187.4-39.6,401.3-1.3,578.1,103c95,55.5,248.1,208.5,303.6,303.6
			c23.8,40.9,59.4,117.5,77.9,171.6c29.1,81.8,34.3,118.8,34.3,248.1s-5.3,166.3-34.3,248.1c-48.8,138.6-108.2,232.3-213.8,339.2
			c-106.9,105.6-202,166.3-335.3,212.5C3123.7-580.1,2940.3-568.2,2821.5-595.9z M3155.4-807c281.1-73.9,468.5-318.1,468.5-613.7
			c0-491-510.8-786.6-952.9-551.7c-88.5,47.5-204.6,166.3-245.5,250.8c-64.7,131.9-84.4,302.2-54.1,448.8
			C2444-932.4,2805.6-715.9,3155.4-807z"/>
		<path class="st0" d="M2779.2-1005l-71.3-72.6l88.5-89.7c93.7-95,114.8-147.9,59.4-147.9c-18.5,0-62,33-118.8,88.5l-89.7,89.7
			l-75.2-76.6l-76.6-75.2l66-66l64.7-66l-64.7-66l-66-66l76.6-75.2l75.2-76.6l89.7,89.7c95,93.7,147.9,114.8,147.9,59.4
			c0-18.5-33-62.1-88.5-118.8l-89.7-89.7l76.6-75.2l75.2-76.6l66,66l66,64.7l66-64.7l66-66l75.2,76.6l76.6,75.2l-89.7,89.7
			c-93.7,95-114.8,147.9-59.4,147.9c18.5,0,62-33,118.8-88.5l89.7-89.7l75.2,76.6l76.6,75.2l-66,66l-64.7,66l64.7,66l66,66
			l-76.6,75.2l-75.2,76.6l-89.7-89.7c-95-93.7-147.9-114.8-147.9-59.4c0,18.4,33,62,88.5,118.8l89.7,89.7l-76.6,75.2l-75.2,76.6
			l-66-66l-66-64.7l-63.3,62.1c-34.3,34.3-66,62.1-69.9,62.1C2854.5-932.4,2818.8-965.4,2779.2-1005z"/>
		<path class="st0" d="M6832.4-595.9c-240.2-54.1-471.1-236.2-579.4-456.6c-91.1-183.5-113.5-348.4-75.2-531.9
			c80.5-378.8,446.1-681.1,824.9-681.1c299.6,0,613.7,199.3,749.7,476.5c130.7,264,121.5,535.9-26.4,788
			c-55.5,96.3-207.2,248.1-303.6,303.6C7245.6-593.2,7017.2-553.6,6832.4-595.9z M7167.7-807c281.1-73.9,468.5-318.1,468.5-613.7
			c0-357.7-275.9-633.5-633.5-633.5s-633.5,275.9-633.5,633.5C6369.1-999.8,6758.5-701.4,7167.7-807z"/>
		<path class="st0" d="M6887.9-1086.9c-178.2-261.3-195.4-298.3-195.4-413.1c0-113.5,21.1-169,95-241.5
			c133.3-134.6,291.7-133.3,426.3,2.7c99,100.3,128,204.6,92.4,333.9C7291.7-1356,7029-943,7006.7-936.3
			C6998.8-933.7,6945.9-1001,6887.9-1086.9z M7059.4-1378.5c87.1-137.3,60.7-253.4-56.7-253.4c-117.5,0-143.8,116.1-55.5,253.4
			c26.4,42.2,51.5,76.6,55.5,76.6C7006.6-1302,7031.8-1336.3,7059.4-1378.5z"/>
	</g>
</g>
</svg>
