<?xml version="1.0" encoding="utf-8"?>
<!-- Generator: Adobe Illustrator 24.1.2, SVG Export Plug-In . SVG Version: 6.00 Build 0)  -->
<svg version="1.1" id="Слой_1" xmlns="http://www.w3.org/2000/svg" xmlns:xlink="http://www.w3.org/1999/xlink" x="0px" y="0px"
	 viewBox="0 0 600 600" style="enable-background:new 0 0 600 600;" xml:space="preserve">
<style type="text/css">
	.st0{fill:none;stroke:#FFFFFF;stroke-width:4;stroke-miterlimit:10;}
	.st1{fill:none;stroke:#FFFFFF;stroke-width:2.3;stroke-miterlimit:10;}
	.st2{fill:none;}
	.st3{fill:none;stroke:#FFFFFF;stroke-width:3;stroke-miterlimit:10;}
	.st4{fill:#FFFFFF;}
</style>
<line class="st0" x1="223.4" y1="295.4" x2="223.4" y2="236.7"/>
<line class="st0" x1="389.6" y1="293.6" x2="389.6" y2="236.7"/>
<g>
	<path class="st1" d="M588.9,316.4c-28.9,0-28.9-8.6-57.7-8.6c-28.9,0-28.9,8.6-57.8,8.6c-28.9,0-28.9-8.6-57.7-8.6
		c-28.9,0-28.9,8.6-57.7,8.6c-28.9,0-28.9-8.6-57.7-8.6c-28.9,0-28.9,8.6-57.8,8.6c-28.9,0-28.9-8.6-57.8-8.6
		c-28.9,0-28.9,8.6-57.8,8.6s-28.9-8.6-57.8-8.6s-28.9,8.6-57.8,8.6"/>
</g>
<g>
	<path class="st1" d="M591.3,297.9c-29.1,0-29.1-8.6-58.1-8.6c-29.1,0-29.1,8.6-58.1,8.6c-29.1,0-29.1-8.6-58.1-8.6
		s-29.1,8.6-58.1,8.6c-29.1,0-29.1-8.6-58.1-8.6s-29.1,8.6-58.1,8.6s-29.1-8.6-58.1-8.6s-29.1,8.6-58.1,8.6s-29.1-8.6-58.2-8.6
		c-29.1,0-29.1,8.6-58.2,8.6"/>
</g>
<g>
	<path class="st1" d="M588.3,336.8c-28.8,0-28.8-8.6-57.6-8.6c-28.8,0-28.8,8.6-57.6,8.6c-28.8,0-28.8-8.6-57.6-8.6
		c-28.8,0-28.8,8.6-57.6,8.6s-28.8-8.6-57.6-8.6c-28.8,0-28.8,8.6-57.6,8.6c-28.8,0-28.8-8.6-57.6-8.6s-28.8,8.6-57.6,8.6
		s-28.8-8.6-57.6-8.6s-28.8,8.6-57.6,8.6"/>
</g>
<path class="st2" d="M236.6,92.3c16.9-5,34.7-8.1,53.1-9"/>
<path class="st2" d="M396.3,104.4c16.3,7.7,31.6,17.4,45.4,28.7"/>
<path class="st2" d="M506.1,219.8c6.7,16.2,11.4,33.5,14,51.4"/>
<path class="st2" d="M462,152c12.3,12.9,23,27.3,31.9,42.9"/>
<path class="st2" d="M317.5,83.7c18.3,1.4,36,4.9,52.8,10.4"/>
<path class="st2" d="M164.2,129.4c14.1-10.9,29.6-20.1,46.1-27.4"/>
<path class="st3" d="M594,222.5l-13.5,8.9l-60.4,39.7c-2.6-17.9-7.3-35.1-14-51.4l71.8,2.2L594,222.5z"/>
<path class="st3" d="M545.1,123.1l-9.4,13.2l-41.8,58.6c-8.9-15.6-19.6-30-31.9-42.9l67.8-23.6L545.1,123.1z"/>
<path class="st3" d="M463.1,47.9l-3.9,15.6l-17.5,69.6c-13.8-11.3-29-20.9-45.4-28.7l54.6-46.1L463.1,47.9z"/>
<path class="st3" d="M370.3,94.1c-16.8-5.5-34.5-9.1-52.8-10.4l34-62.6L359.2,7l2,16L370.3,94.1z"/>
<path class="st3" d="M289.6,83.3c-18.4,0.9-36.1,4-53.1,9l8.9-70.4l2-15.8l7.7,14.2L289.6,83.3z"/>
<path class="st3" d="M210.3,101.9c-16.6,7.3-32,16.5-46.1,27.4l-17.5-68.9L142.8,45l12.4,10.4L210.3,101.9z"/>
<path class="st3" d="M141.8,152.5c-12.7,12.6-23.8,26.7-33.1,42l-41.5-57.9l-9.4-13.1l15.4,5.3L141.8,152.5z"/>
<path class="st3" d="M94.8,219.8c-7.1,16.1-12.4,33.2-15.4,51l-59.9-39.3L6,222.7l16.2-0.5L94.8,219.8z"/>
<polyline class="st0" points="365.9,218.8 403.8,236.7 390.1,236.7 389.6,236.7 223.9,236.7 223.4,236.7 209.3,236.7 306.5,190.8 
	336.6,205 "/>
<polyline class="st3" points="337,207.5 337,188.7 366.8,188.7 366.8,221.4 "/>
<g>
	<path class="st4" d="M87.7,374.5l-5.2,1c-1.7-7.7-3.1-14.1-4.5-19.4c-4.2,1.3-10,2.8-17.4,4.6c-9,2.2-15.7,3.9-20,5.3l-1.5-6
		c5.3-1,12-2.5,20.2-4.5c9.5-2.3,16.9-4.2,22.2-5.8L87.7,374.5z"/>
	<path class="st4" d="M92.7,436.7c-6.5,3.2-12.6,3.9-18.3,2c-5.7-1.8-9.9-5.2-12.3-10.1c-2.4-4.7-2.7-9.7-0.9-15
		c1.8-5.3,5.6-9.4,11.7-12.4c6.5-3.2,12.7-3.9,18.4-2.1c5.7,1.8,9.8,5.2,12.3,10.1c2.4,4.7,2.7,9.7,0.9,15
		C102.6,429.6,98.7,433.7,92.7,436.7z M89.4,431.7c5.2-2.5,8.5-5.9,9.9-9.9c1.5-4.1,1.3-7.8-0.4-11.3c-1.6-3.2-4.6-5.4-8.8-6.5
		c-4.3-1.1-8.9-0.4-13.8,2.1c-5.2,2.6-8.5,5.9-10,10c-1.5,4.1-1.3,7.9,0.4,11.3c1.6,3.2,4.6,5.4,8.9,6.4
		C79.8,434.9,84.5,434.2,89.4,431.7z"/>
	<path class="st4" d="M114.6,492.3l-4.1,2.8c-2.4-1.6-4.7-3.6-6.7-6c-5-5.8-7.1-11.5-6.3-17.1c0.7-5.6,3.4-10.3,8.1-14.2
		c4.9-4.1,10.5-5.9,16.8-5.6s11.8,3.2,16.5,8.7c1.3,1.5,2.4,3.3,3.4,5.4l-4.7,2.7c-1-2.5-2.2-4.4-3.5-6c-3.5-4.1-7.4-6.1-11.8-6.1
		c-4.4,0-8.4,1.6-12.1,4.7c-3.8,3.1-6,7.1-6.6,11.7c-0.6,4.7,0.9,9.2,4.5,13.5C109.4,488.4,111.6,490.2,114.6,492.3z"/>
	<path class="st4" d="M181.9,498.9l-3,3.6c-3.4-2.8-6.9-5.7-10.7-8.5c-2.6,3.3-6,7.6-10,12.7c-4.4,5.7-9,11.8-13.7,18.2l-4.9-3.7
		c4.9-5.8,9.6-11.7,14.3-17.7c4-5.1,7.2-9.4,9.8-12.9c-2.6-2-6.4-4.7-11.3-8.1l3-3.7L181.9,498.9z"/>
	<path class="st4" d="M208,554.8l-2.3,4.5L181.2,548c3.2-6.1,6.6-12.8,10.1-20.3c3.3-7,6.1-13.3,8.3-18.7l23,10.5l-2.3,4.4
		c-5.5-2.8-11.3-5.6-17.5-8.5c-1.3,3.2-3.2,7.4-5.7,12.7c5.4,2.5,10.3,4.6,14.6,6.3l-2.1,4.5c-4.4-2.2-9.2-4.5-14.3-6.9
		c-2.4,5.1-4.6,10-6.5,14.6C195.4,549.5,201.8,552.3,208,554.8z"/>
	<path class="st4" d="M268.9,561.9c-0.8,4.2-3.3,7.1-7.4,8.7c-4,1.5-9,1.7-15.2,0.5c-1.7-0.3-5.1-1.1-10-2.2
		c1.7-6.7,3.3-14,4.9-22.1c1.5-7.6,2.7-14.3,3.6-20.2l3.9,0.8c0.8,0.2,2.3,0.4,4.7,0.8c2.3,0.4,4,0.7,5.1,0.9
		c9.1,1.8,13.1,5.8,11.8,12c-1,4.9-3.8,7.7-8.4,8.4l-0.1,0.3C267.7,552.1,270,556.2,268.9,561.9z M263.2,561.4
		c1.1-5.3-3.2-8.9-12.7-10.8c-1.7-0.3-3.3-0.6-4.7-0.7c-1.2,5.8-2.1,11-2.8,15.6c0.8,0.4,2.2,0.7,4.3,1.2c5.3,1,9.2,1.1,11.7,0.2
		C261.3,565.9,262.7,564.1,263.2,561.4z M264.4,541.7c0.9-4.5-1.7-7.3-7.8-8.5c-3.1-0.6-5.6-0.9-7.6-1c-0.1,1.6-0.9,6-2.4,13.3
		c1.1,0.3,2.2,0.5,3.5,0.8c4.3,0.9,7.6,1,9.8,0.4C262.4,545.9,263.9,544.3,264.4,541.7z"/>
	<path class="st4" d="M336.2,552.4c0.5,7.1-1.3,12.9-5.2,17.5c-3.9,4.5-8.7,7-14.2,7.3c-5.3,0.3-10.1-1.3-14.4-5
		c-4.3-3.7-6.6-8.8-7.1-15.4c-0.5-7.2,1.3-13,5.2-17.5c3.9-4.5,8.7-6.9,14.2-7.3c5.3-0.3,10.1,1.3,14.4,5
		C333.4,540.6,335.7,545.8,336.2,552.4z M330.3,553.6c-0.4-5.7-2.2-10-5.4-12.9s-6.8-4.3-10.8-4c-3.7,0.2-6.8,2.1-9.4,5.6
		c-2.6,3.5-3.8,7.9-3.4,13.4c0.4,5.7,2.2,10,5.4,12.9c3.2,2.9,6.8,4.3,10.8,4c3.7-0.2,6.8-2.1,9.4-5.6
		C329.5,563.4,330.6,559,330.3,553.6z"/>
	<path class="st4" d="M403,555.9l-6,2.1c-1.1-4-3.1-9.8-5.8-17.5c-1.3-3.5-2.8-8-4.7-13.5l-0.3,0.1c0,2.3-2,9-6,20.1
		c-3.8,10.3-5.3,16.4-4.6,18.4l-4.4,1.6c-1.6-5.6-3.8-12.1-6.5-19.4c-2.7-7.5-5.5-14.5-8.3-21.1l5.9-2.1c1.7,5.7,3.9,12.1,6.4,19
		c1.3,3.6,2.6,7.6,4,12l0.3-0.1c0.1-2.4,2.2-9.1,6.3-20.1c3.7-10,5.2-16.1,4.4-18.4l4.4-1.6c2.1,6.9,4.5,14,7.3,21.5
		C398.1,544.1,400.6,550.5,403,555.9z M378.2,506c0.8,2.3,0.9,4.6,0.1,7c-0.8,2.4-3,4.2-6.5,5.4c-3.7,1.3-6.6,1.3-8.7,0
		c-2.2-1.3-3.7-3.1-4.5-5.4l4.3-2.2c1.5,4.2,4.1,5.6,7.7,4.3c2.1-0.8,3.4-1.8,3.7-3.1c0.4-1.3,0.2-3-0.5-5L378.2,506z"/>
	<path class="st4" d="M488.3,491.1c0.9,1,2.6,3.2,5,6.8c2.5,3.6,4.5,6.2,6,7.9l-2.9,2.7c-1.9-2.1-5.1-5.5-9.6-10.2
		c-2.8,2.2-6.7,5.6-11.9,10.3c-4.4,4-8,7.4-10.9,10.3c3.5,5.6,6.2,9.4,8.2,11.5l-2.8,2.6c-1.5-1.7-3.8-4.1-6.8-7.2s-4.9-5.2-5.8-6.2
		l2.4-2.1c-5-11-9.9-24-14.7-39l12.6-11.4c4.6,5.4,9.1,10.4,13.5,15.2c4.4,4.8,8.8,9.2,13,13.2L488.3,491.1z M479.3,499.2
		c-3.1-2.9-7.1-7.1-12.1-12.5c-4.5-4.9-8.4-9.1-11.8-12.6l-6.1,5.5c5.7,16.1,10.2,27.5,13.6,34.4L479.3,499.2z"/>
	<path class="st4" d="M513.4,426.8c6,3.9,9.7,8.7,11,14.6c1.3,5.8,0.5,11-2.6,15.6c-2.9,4.4-7.1,7.2-12.6,8.4
		c-5.5,1.2-11.1,0-16.7-3.7c-6.1-3.9-9.8-8.8-11.1-14.6c-1.3-5.8-0.4-11,2.6-15.6c2.9-4.4,7.1-7.2,12.6-8.4
		C502.1,421.9,507.7,423.1,513.4,426.8z M510.8,432.1c-4.8-3.1-9.4-4.3-13.7-3.5s-7.5,2.8-9.7,6.1c-2,3-2.4,6.6-1.2,10.8
		c1.2,4.2,4.2,7.7,8.8,10.7c4.8,3.1,9.4,4.3,13.7,3.5c4.3-0.8,7.5-2.9,9.7-6.1c2-3,2.4-6.6,1.1-10.8
		C518.3,438.6,515.4,435.1,510.8,432.1z"/>
	<path class="st4" d="M561,364.4l-1.9,6c-4.8-1.5-11.7-3.3-20.9-5.4c-9.2-2.1-14.7-3.4-16.5-4l-0.1,0.3c6.3,4.3,12.9,9.2,20,15
		s11.3,8.8,12.7,9.2l-1.3,4.3c-1.5-0.5-6.8-0.4-15.9,0c-9.1,0.5-15.2,0.7-18.2,0.7c-3-0.1-5.2-0.1-6.4-0.2l-0.1,0.3
		c2.9,1,8.7,3.2,17.3,6.7c8.6,3.5,14.9,5.9,18.7,7.1l-1.7,5.4c-0.2-0.1-5.8-2.6-16.9-7.6c-11.1-5-18.8-8.2-23.3-9.6l2.6-8.3
		c2.3,0.7,8.7,0.8,19.2,0.4s16.7-0.4,18.6,0.2l0.1-0.3c-2-0.6-7.1-4.3-15.3-11s-13.4-10.4-15.7-11.1l2.6-8.1
		c4.5,1.4,12.6,3.4,24.4,5.9C554.6,362.9,560.6,364.3,561,364.4z"/>
</g>
<g>
	<path class="st4" d="M81.5,192.6l-15.2,2.6c-0.3,0-0.5,0.1-0.7,0.1l0,0.1l11.1,6l-0.8,1.4l-22.2-12l0.8-1.4L65,195l0-0.1
		c-0.2-0.2-0.3-0.4-0.3-0.6L59.1,181l1-1.8l6,14.4l16.5-3L81.5,192.6z"/>
</g>
<g>
	<path class="st4" d="M141.8,120.4l-7.3-4.1l-8.3,7l2.9,7.8l-1.5,1.2l-9.2-25.1l1.3-1.1l23.6,12.9L141.8,120.4z M122.1,109.5
		c-0.3-0.2-0.6-0.4-0.9-0.6c-0.3-0.2-0.5-0.3-0.8-0.5l-0.1,0c0.3,0.7,0.6,1.3,0.8,1.8l4.4,11.5l7.4-6.3L122.1,109.5z"/>
</g>
<g>
	<path class="st4" d="M206.2,68.6l3.9,9.2l-1.6,0.7l-9.8-23l5.6-2.3c2.4-1,4.5-1.2,6.2-0.6c1.7,0.6,3,1.9,3.9,4
		c0.9,2.1,1,4.2,0.1,6.2c-0.8,2-2.5,3.5-5.1,4.5L206.2,68.6z M201,56.3l4.6,10.9l3.3-1.4c2.1-0.9,3.5-2,4.2-3.5
		c0.7-1.4,0.6-3.1-0.1-4.9c-1.5-3.5-4.2-4.4-8.2-2.7L201,56.3z"/>
</g>
<g>
	<path class="st4" d="M292.9,61.1v-25h11.8v1.6h-10.1v10h9.3v1.6h-9.3v10.2h10.6v1.6C305.3,61.1,292.9,61.1,292.9,61.1z"/>
</g>
<g>
	<path class="st4" d="M396.3,81.1L406.4,60l-7.2-3.4c-0.9,1.3-1.7,2.7-2.7,4.1c-0.9,1.4-1.8,2.7-2.7,4c-0.9,1.3-1.7,2.5-2.5,3.6
		c-0.8,1.1-1.4,2-2,2.7c-0.6,0.7-1.2,1.4-1.8,2c-0.6,0.6-1.2,1.1-1.9,1.4c-0.6,0.4-1.3,0.6-2,0.6c-0.7,0.1-1.4-0.1-2.1-0.4
		c-0.3-0.2-0.6-0.3-0.9-0.5s-0.4-0.3-0.6-0.5l0.8-1.6c0.3,0.4,0.8,0.7,1.3,1c0.5,0.2,1,0.3,1.4,0.2c0.5-0.1,1-0.3,1.4-0.6
		c0.5-0.3,1-0.8,1.5-1.3c0.5-0.5,1.1-1.2,1.6-1.9c0.4-0.5,0.8-1,1.2-1.6c0.5-0.6,1-1.4,1.5-2.1c0.6-0.8,1.2-1.6,1.8-2.5
		c0.6-0.9,1.3-1.8,1.9-2.8c0.6-1,1.3-1.9,1.9-2.9c0.6-1,1.3-2,1.9-2.9l10.1,4.7l-10.8,22.6L396.3,81.1z"/>
</g>
<g>
	<path class="st4" d="M468.3,129.5l13.4-14.4c0.1-0.1,0.2-0.2,0.4-0.4c0.1-0.1,0.3-0.3,0.4-0.4c0.1-0.1,0.3-0.3,0.4-0.4
		c0.1-0.1,0.3-0.3,0.4-0.4l-0.1,0c-0.1,0-0.2,0.1-0.4,0.1s-0.3,0.1-0.5,0.1s-0.3,0.1-0.5,0.1c-0.2,0-0.3,0.1-0.4,0.1l-24.9,4.8
		l-0.9-0.8l17.1-18.4l1.3,1.2l-13.4,14.4c-0.2,0.2-0.4,0.4-0.7,0.7c-0.3,0.3-0.5,0.5-0.8,0.8l0.1,0c0.2-0.1,0.5-0.1,0.9-0.2
		c0.4-0.1,0.7-0.2,1-0.2l24.7-4.7l1,0.9l-17.1,18.4L468.3,129.5z"/>
</g>
<g>
	<path class="st4" d="M522.3,201.8l10-5.1l-1.7-3.2c-0.3-0.6-0.6-1.1-1-1.4c-0.4-0.3-0.8-0.6-1.3-0.8c-0.5-0.2-1-0.3-1.6-0.3
		c-0.6,0-1.2-0.1-1.8,0l-8,0.4l-0.9-1.7l8.8-0.3c0.6,0,1.1,0,1.6,0.1c0.5,0.1,0.9,0.1,1.3,0.2c0.4,0.1,0.7,0.2,1,0.4
		c0.3,0.2,0.6,0.3,0.8,0.5l0.1,0c-0.2-0.7-0.4-1.5-0.4-2.2c0-0.8,0.1-1.5,0.3-2.2c0.2-0.7,0.6-1.4,1.2-2c0.5-0.6,1.3-1.2,2.1-1.6
		c0.4-0.2,0.9-0.4,1.4-0.5c0.5-0.1,1.1-0.2,1.7-0.2s1.2,0.1,1.8,0.2c0.6,0.2,1.2,0.4,1.8,0.8c0.6,0.3,1.1,0.8,1.7,1.4
		c0.5,0.6,1,1.3,1.4,2.1l3,5.8l-22.5,11.4L522.3,201.8z M543.3,191.1l-2.2-4.2c-0.5-1-1.1-1.8-1.8-2.4c-0.6-0.5-1.3-0.9-2-1.1
		c-0.7-0.2-1.3-0.2-2-0.1c-0.7,0.1-1.3,0.3-1.8,0.6c-0.9,0.5-1.6,1-2,1.7c-0.4,0.6-0.7,1.3-0.8,2.1c-0.1,0.7-0.1,1.5,0.1,2.3
		c0.2,0.8,0.5,1.5,0.8,2.2l2,3.9L543.3,191.1z"/>
</g>
<path class="st3" d="M589.2,296.9c0,0.4,0,0.7,0,1.1c0,0.5,0,1.1,0.1,1.6c0,0.5,0,1.1,0,1.6c0,0.6,0,1.2,0,1.8c0,0.6,0,1.2,0,1.8
	c0,1.2,0,2.4,0,3.7c0,0,0,0,0,0c0,0,0,0.1,0,0.1c0,1.5,0,3.1,0,4.6c0,0.5,0,1.1,0,1.6c0,1.6-0.1,3.1-0.1,4.7c0,0,0,0,0,0
	c-0.1,1.7-0.1,3.4-0.2,5.2c0,0.3,0,0.5,0,0.8c-0.1,1.7-0.2,3.3-0.3,5c-0.4,4.6-0.8,9.2-1.4,13.7C569.4,485,447.9,594,300.6,594
	C153.3,594,31.7,485,13.9,344.2c-0.6-4.5-1-9.1-1.4-13.7c-0.1-1.7-0.2-3.3-0.3-5c0-0.3,0-0.5,0-0.8c-0.1-1.7-0.2-3.4-0.2-5.2
	c0,0,0,0,0,0c-0.1-1.6-0.1-3.1-0.1-4.7c0-0.5,0-1.1,0-1.6c0-1.5,0-3.1,0-4.6c0,0,0-0.1,0-0.1c0,0,0,0,0,0c0-1.2,0-2.4,0-3.7
	c0-0.6,0-1.2,0-1.8c0-0.6,0-1.2,0-1.8c0-0.5,0-1.1,0-1.6c0-0.5,0-1.1,0.1-1.6c0-0.4,0-0.7,0-1.1"/>
<g>
	<path class="st4" d="M192.5,433c0,0.5,0.2,1,0.5,1.3s0.7,0.6,1.1,0.9c0.4,0.2,0.8,0.4,1.3,0.5c0.4,0.1,0.8,0.1,1.1,0.1
		c0.8,0,1.2-0.4,1.2-1.2c0-0.3-0.1-0.6-0.2-1.1s-0.2-0.9-0.3-1.5c-0.1-0.5-0.2-1-0.3-1.5c-0.1-0.4-0.2-0.7-0.2-0.9
		c0-1,0.5-1.5,1.5-1.5c0.4,0,1,0.1,1.8,0.3c0.8,0.2,1.6,0.6,2.4,1c0.8,0.4,1.5,1,2.1,1.7s0.9,1.5,0.9,2.5c0,0.5-0.1,1.1-0.3,1.7
		c-0.2,0.6-0.5,1.1-1.1,1.5c-0.5,0.4-1.3,0.7-2.3,1c-1,0.3-2.3,0.4-4,0.4c-2.7,0-5.1-0.8-7.1-2.5v12.8h14.6v1.6h-32v-1.6h5.1v-83
		c0-2.9,0.2-5.2,0.7-6.8c0.4-1.6,1.2-2.9,2.1-3.8c1-0.9,2.2-1.4,3.7-1.7c1.5-0.2,3.3-0.3,5.3-0.3c1.8,0,3.8,0.2,5.9,0.5
		c2.1,0.3,4.2,0.8,6.4,1.6c2.1,0.8,4.1,1.7,6.1,2.9c2,1.2,3.7,2.6,5.2,4.4s2.7,3.7,3.6,6c0.9,2.3,1.3,4.9,1.3,7.9
		c0,3.7-0.5,7.2-1.5,10.5c-1,3.3-2.3,6.5-3.9,9.6c-1.6,3.1-3.4,6.2-5.5,9.3s-4.2,6.4-6.5,9.9c-5.8,8.9-8.8,14.6-8.8,17.1L192.5,433
		L192.5,433z M193.9,355.7c-2.1,0-3.2,1.1-3.2,3.3v74.4c0.1-1.5,0.8-3.9,2.2-7.2c1.3-3.3,3.2-7.6,5.6-12.8
		c4.6-10.1,6.9-21.6,6.9-34.4c0-11.3-2.4-18.5-7.1-21.7C196.8,356.3,195.3,355.7,193.9,355.7z"/>
	<path class="st4" d="M274.7,424.6h1.8c0.4-3.1,0.8-6.3,0.9-9.5c0.2-3.3,0.2-6.6,0.2-10.1c0-1,0-1.9,0-2.8c0-1,0-2-0.1-3
		c-0.3-10.1-0.5-18.6-0.6-25.3c-0.1-6.7-0.2-11.7-0.2-15c0-2.2,0-3.5,0.1-4h-0.7v-1.6h16c-3.2,7.7-6.1,23.3-8.6,46.9
		c-2.9,27-7.1,42.5-12.8,46.6c-3.9,2.8-8,4.2-12.1,4.2c-0.8,0-1.7,0-2.8-0.1c-1.1-0.1-2.2-0.3-3.2-0.6s-1.9-0.8-2.6-1.4
		c-0.7-0.6-1.1-1.5-1.1-2.6c0-1.1,0.4-1.9,1.2-2.7c0.8-0.7,1.7-1.3,2.8-1.7c1.1-0.4,2.1-0.7,3.2-0.9c1-0.2,1.8-0.3,2.3-0.3
		c1.2,0,1.8,0.6,1.8,1.7l-0.5,3.4c0,1.4,0.7,2.1,2.1,2.1c2.1,0,4.1-0.7,5.9-2c1.8-1.3,3.3-3,4.5-5.2c1.5-3.2,2.9-8.1,4-14.8
		c-9.3,0.5-14.6,4.1-16.2,10.6c-1.5-1.1-2.8-2.1-4-3s-1.7-1.9-1.7-3.1c0-1.9,2.7-3.4,8-4.8l-17.2-71h-1.5v-1.6h14.6v1.6h-0.7
		L274.7,424.6z"/>
	<path class="st4" d="M332.1,448.5c1.5-0.2,2.6-1,3.5-2.5c0.8-1.5,1.3-3.6,1.3-6.4c0-2.6-0.5-5.1-1.5-7.6s-2.2-4.9-3.5-7.2
		c-1.3-2.3-2.7-4.4-4-6.3c-1.3-1.9-2.4-3.5-3-4.8c-2.6-4.9-4.5-9.5-5.6-13.7s-1.6-8.6-1.6-13.2c0-5.1,0.4-9.8,1.3-14
		c0.8-4.2,2.1-7.8,3.8-10.7c1.7-3,3.8-5.3,6.3-6.9c2.5-1.6,5.5-2.5,8.8-2.5c2.7,0,5.2,0.5,7.6,1.5c2.4,1,4.5,2.4,6.4,4.2
		c1.9,1.8,3.5,3.9,4.8,6.4c1.3,2.5,2.2,5.3,2.7,8.3h-12.6c-2.2-12.2-5.9-18.3-11.1-18.3c-5.5,0-8.2,5.7-8.2,16.9
		c0,11.5,2.5,23.1,7.4,35c4.4,10.3,6.6,19.3,6.6,27c0,6.4-1.6,11.3-4.9,14.6c7.9-2.1,11.8-15.4,11.8-40V399l13-2
		c0,6.2-0.5,11.7-1.4,16.5c-1,4.9-2.5,9.7-4.5,14.7c-1.7,4.3-3.5,7.9-5.3,10.8c-1.8,2.9-3.7,5.2-5.7,6.9c-2,1.7-4.2,3-6.6,3.7
		c-2.4,0.7-5.2,1.1-8.2,1.1c-6.8,0-10.3-1.4-10.3-4.1c0-1.1,0.6-2,1.8-2.5c2.2-1.1,4.8-2.2,7.9-3.3c1.1,0,1.7,0.5,1.7,1.5l-0.7,4.5
		c0,1.1,0.6,1.7,1.8,1.7L332.1,448.5L332.1,448.5z"/>
	<path class="st4" d="M403.7,364.2c0,9.3,3.9,18.7,11.7,28.2c10.1,12.1,15.1,25.8,15.1,41c0,2.7-0.2,5.5-0.5,8.3
		c-0.3,2.8-0.8,5.6-1.4,8.5h-42.3v-1.6h4.9v-93.7h-4.9v-1.6h22.1v1.6h-4.8L403.7,364.2L403.7,364.2z M418.1,421.5
		c0-11.5-1.8-20.5-5.6-27c-2.5-4.2-4.4-7.8-5.8-10.7c-1.4-2.9-2.5-5.1-3.1-6.8v71.6h10.6C416.9,440.3,418.1,431.2,418.1,421.5z"/>
</g>
<path class="st3" d="M95.9,293.6c9.5-103.2,97.3-184.1,204.2-184.1c106.9,0,194.8,80.9,204.2,184.1"/>
<path class="st3" d="M96.1,332.5c10.3,102.4,97.7,182.3,204.1,182.3c106.3,0,193.7-79.9,204.1-182.3"/>
</svg>
